<svg version="1.1" xmlns="http://www.w3.org/2000/svg" viewBox="-307.2 -982.0160400390625 9427.968359375 4179.712304687499"><desc>Created with Snap</desc><defs></defs><g><g transform="matrix(25.5762,0,0,25.5762,3182.319,485.4383)"><path fill="#5ca4a9" d="M45.449,19.144c-7.641,18.075,17.768,29.46,18.973,51.125c0.812,14.602-9.163,20.697-15.878,23.766  c-9.784-3.648-15.538-8.717-15.998-16.984c-0.552-9.925,9.412-13.374,10.719-23.492c1.063-8.234-3.762-14.247-3.074-22.069  C40.762,24.984,45.449,19.144,45.449,19.144z" style=""></path><path fill="#5ca4a9" d="M51.87,10.262c-13.112,19.692,4.755,31.374,7.854,39.535C70.889,38.297,44.696,29.923,51.87,10.262z" style=""></path><path fill="#5ca4a9" d="M37.663,43c9.752,10.3-3.055,19.25-4.994,24.25C26.454,58.06,43.478,52.821,37.663,43z" style=""></path><path fill="#5ca4a9" d="M53.282,5.843c6.165,3.271,1.6,9.456,1.481,12.092C50.421,14.625,57.536,9.509,53.282,5.843z" style=""></path><desc>Created with Snap</desc><defs></defs></g><g><g transform="matrix(1.024,0,0,-1.024,0,0)"><path d="M511 209Q511 46 529 46Q547 46 577 87Q608 129 637 194Q667 260 673 260Q680 260 680 252Q680 224 646 150Q573 -5 515 -5Q493 -5 475 0Q457 6 453 11Q443 23 443 99Q443 279 455 391Q397 334 349 261Q370 181 370 122Q370 64 347 32Q325 0 291 0Q250 0 250 79Q250 133 293 222Q273 292 235 359Q219 268 186 173Q153 78 118 31Q83 -15 35 -15Q0 -15 0 12Q0 34 15 43Q30 52 50 56Q71 61 77 67Q116 108 150 207Q185 306 201 410Q158 466 158 493Q158 521 172 542Q187 563 220 563Q230 563 237 537Q244 512 244 484Q305 395 337 300Q393 392 465 470Q496 659 537 659Q551 659 566 638Q582 617 582 595Q582 527 523 457Q511 372 511 209ZM303 179Q279 126 279 84Q279 43 289 43Q299 43 304 67Q309 92 309 119Q309 146 303 179ZM964 217Q1004 230 1019 239Q1035 249 1043 254L1055 261Q1060 264 1063 264Q1071 264 1071 255Q1071 246 1040 223Q1009 201 963 183Q956 99 910 47Q864 -5 779 -5Q717 -5 684 44Q651 94 651 160Q651 227 690 286Q730 345 792 345Q820 365 858 365Q897 365 930 324Q963 283 964 217ZM899 166L863 164Q817 164 785 191Q753 219 753 252Q753 285 764 309Q721 275 721 175Q721 127 741 83Q761 40 804 40Q847 40 871 76Q895 113 899 166ZM837 332Q821 332 812 317Q803 303 803 286Q803 249 828 226Q854 203 888 203L900 203Q898 252 883 292Q869 332 837 332ZM1093 54L1094 23Q1094 -5 1078 -5Q1054 -5 1032 1Q1010 8 1010 19Q1010 31 1015 98Q1021 166 1021 200L1021 259Q1021 307 1031 317Q1041 327 1066 346Q1092 365 1103 365Q1115 365 1118 361Q1121 357 1121 346Q1121 293 1101 246Q1096 189 1096 167Q1100 173 1138 235Q1176 297 1202 326Q1229 355 1250 355Q1271 355 1287 341Q1304 327 1304 306Q1304 262 1294 176Q1285 91 1285 68Q1285 46 1291 46Q1308 47 1338 88Q1368 130 1397 195Q1427 260 1433 260Q1440 260 1440 252Q1440 224 1411 163Q1332 -5 1278 -5Q1239 -5 1219 11Q1212 18 1212 47Q1212 77 1217 143Q1223 210 1223 243Q1223 276 1211 276Q1200 276 1151 207Q1102 139 1099 120Q1093 85 1093 54ZM1667 -5Q1628 -5 1608 11Q1601 18 1601 46Q1601 75 1603 123Q1577 58 1551 26Q1526 -5 1486 -5Q1446 -5 1416 32Q1386 70 1386 150Q1386 231 1431 293Q1477 355 1551 355Q1583 355 1623 313Q1631 324 1651 339Q1672 355 1686 355Q1701 355 1701 317Q1701 307 1695 278Q1690 249 1683 236Q1674 213 1674 73Q1674 46 1680 46Q1697 47 1727 88Q1757 130 1786 195Q1816 260 1822 260Q1829 260 1829 252Q1829 224 1800 163Q1721 -5 1667 -5ZM1545 315Q1517 315 1485 273Q1454 232 1454 176Q1454 120 1470 84Q1487 48 1514 48Q1547 48 1611 213Q1612 221 1613 240Q1615 260 1616 270Q1607 286 1584 300Q1562 315 1545 315ZM2223 26Q2277 26 2318 64Q2360 102 2360 151Q2360 201 2329 243Q2295 226 2262 226Q2185 226 2185 274Q2185 288 2204 299Q2223 311 2258 311Q2294 311 2336 290Q2376 333 2376 387Q2376 454 2317 493Q2259 533 2192 533Q2178 533 2171 532Q2170 503 2166 439Q2160 343 2160 146Q2160 70 2149 70Q2106 70 2094 82Q2082 94 2082 151Q2082 165 2087 266Q2093 367 2093 429Q2093 491 2097 520Q2044 502 2040 462Q2036 429 2025 416Q2015 403 1997 403Q1980 403 1974 412Q1968 422 1968 432Q1968 519 2103 552Q2120 620 2157 620Q2172 620 2172 564Q2198 567 2236 567Q2275 567 2325 552Q2375 538 2412 501Q2449 465 2449 420Q2449 336 2368 269Q2424 225 2424 164Q2424 103 2386 63Q2315 -10 2196 -10Q2115 -10 2080 1Q2073 3 2065 11Q2058 20 2058 33Q2058 54 2099 54Q2112 54 2156 40Q2200 26 2223 26ZM2308 265Q2278 290 2251 290Q2225 290 2225 279Q2225 256 2274 256Q2292 256 2308 265ZM2596 -5Q2540 -5 2507 37Q2474 80 2474 134Q2474 243 2520 299Q2566 355 2639 355Q2673 355 2695 336Q2717 318 2717 286Q2717 226 2666 185Q2616 145 2543 143Q2547 104 2569 75Q2592 47 2622 47Q2652 47 2676 61Q2700 75 2720 101Q2762 156 2792 226Q2800 244 2804 252Q2809 260 2814 260Q2820 260 2820 252Q2820 202 2759 102Q2693 -5 2596 -5ZM2543 167Q2602 177 2629 205Q2657 233 2657 278Q2657 323 2628 323Q2593 323 2569 274Q2545 226 2543 167ZM2840 -5Q2818 -5 2799 0Q2781 6 2777 11Q2767 23 2767 135Q2767 248 2792 441Q2813 600 2890 600Q2908 600 2916 580Q2924 561 2924 543Q2924 413 2845 252Q2842 169 2842 107Q2842 46 2853 46Q2870 47 2900 88Q2930 130 2959 195Q2989 260 2995 260Q3002 260 3002 252Q3002 224 2973 163Q2894 -5 2840 -5ZM2899 534Q2899 566 2891 566Q2861 566 2847 317Q2899 454 2899 534ZM3015 -5Q2993 -5 2974 0Q2956 6 2952 11Q2942 23 2942 135Q2942 248 2967 441Q2988 600 3065 600Q3083 600 3091 580Q3099 561 3099 543Q3099 413 3020 252Q3017 169 3017 107Q3017 46 3028 46Q3045 47 3075 88Q3105 130 3134 195Q3164 260 3170 260Q3177 260 3177 252Q3177 224 3148 163Q3069 -5 3015 -5ZM3074 534Q3074 566 3066 566Q3036 566 3022 317Q3074 454 3074 534ZM3398 -5Q3359 -5 3339 11Q3332 18 3332 46Q3332 75 3334 123Q3308 58 3282 26Q3257 -5 3217 -5Q3177 -5 3147 32Q3117 70 3117 150Q3117 231 3162 293Q3208 355 3282 355Q3314 355 3354 313Q3362 324 3382 339Q3403 355 3417 355Q3432 355 3432 317Q3432 307 3426 278Q3421 249 3414 236Q3405 213 3405 73Q3405 46 3411 46Q3428 47 3458 88Q3488 130 3517 195Q3547 260 3553 260Q3560 260 3560 252Q3560 224 3531 163Q3452 -5 3398 -5ZM3276 315Q3248 315 3216 273Q3185 232 3185 176Q3185 120 3201 84Q3218 48 3245 48Q3278 48 3342 213Q3343 221 3344 240Q3346 260 3347 270Q3338 286 3315 300Q3293 315 3276 315ZM4032 459L4037 485Q4033 539 3964 539Q3924 539 3894 510Q3865 482 3865 450Q3865 419 3891 395Q3918 372 3955 353Q3993 335 4030 313Q4068 292 4094 258Q4121 224 4121 181Q4121 92 4051 41Q3981 -10 3900 -10Q3819 -10 3765 19Q3711 49 3711 109Q3711 141 3733 167Q3755 193 3796 193Q3812 193 3825 184Q3838 175 3841 160Q3841 145 3823 145Q3789 145 3789 116Q3790 83 3820 56Q3851 29 3906 29Q3962 29 4001 67Q4041 105 4041 159Q4041 195 4014 224Q3987 253 3949 273Q3911 294 3872 315Q3834 336 3807 366Q3780 396 3780 434Q3780 501 3837 541Q3895 581 3968 581Q4017 581 4057 561Q4097 541 4098 500Q4098 476 4086 460Q4074 444 4053 444Q4033 444 4032 459ZM4209 311Q4220 324 4244 344Q4268 365 4282 365Q4296 365 4296 325Q4296 286 4275 248Q4271 230 4269 196Q4298 275 4327 315Q4356 355 4397 355Q4439 355 4470 317Q4501 280 4501 199Q4501 119 4455 57Q4410 -5 4336 -5Q4298 -5 4259 23Q4259 -168 4237 -268Q4235 -277 4210 -299Q4186 -320 4174 -320Q4163 -320 4158 -304Q4153 -288 4153 -274Q4153 -171 4195 -9Q4202 85 4204 197Q4207 309 4209 311ZM4342 31Q4371 31 4402 71Q4433 112 4433 171Q4433 231 4416 266Q4400 302 4372 302Q4324 302 4263 103Q4261 75 4261 59Q4289 31 4342 31ZM4819 -5Q4780 -5 4760 11Q4753 18 4753 46Q4753 75 4755 123Q4729 58 4703 26Q4678 -5 4638 -5Q4598 -5 4568 32Q4538 70 4538 150Q4538 231 4583 293Q4629 355 4703 355Q4735 355 4775 313Q4783 324 4803 339Q4824 355 4838 355Q4853 355 4853 317Q4853 307 4847 278Q4842 249 4835 236Q4826 213 4826 73Q4826 46 4832 46Q4849 47 4879 88Q4909 130 4938 195Q4968 260 4974 260Q4981 260 4981 252Q4981 224 4952 163Q4873 -5 4819 -5ZM4697 315Q4669 315 4637 273Q4606 232 4606 176Q4606 120 4622 84Q4639 48 4666 48Q4699 48 4763 213Q4764 221 4765 240Q4767 260 4768 270Q4759 286 4736 300Q4714 315 4697 315ZM5401 -5Q5362 -5 5342 11Q5335 18 5335 46Q5335 75 5337 123Q5311 58 5285 26Q5260 -5 5220 -5Q5180 -5 5150 32Q5120 70 5120 150Q5120 231 5165 293Q5211 355 5285 355Q5317 355 5357 313Q5365 324 5385 339Q5406 355 5420 355Q5435 355 5435 317Q5435 307 5429 278Q5424 249 5417 236Q5408 213 5408 73Q5408 46 5414 46Q5431 47 5461 88Q5491 130 5520 195Q5550 260 5556 260Q5563 260 5563 252Q5563 224 5534 163Q5455 -5 5401 -5ZM5279 315Q5251 315 5219 273Q5188 232 5188 176Q5188 120 5204 84Q5221 48 5248 48Q5281 48 5345 213Q5346 221 5347 240Q5349 260 5350 270Q5341 286 5318 300Q5296 315 5279 315ZM5581 54L5582 23Q5582 -5 5566 -5Q5542 -5 5520 1Q5498 8 5498 19Q5498 31 5503 98Q5509 166 5509 200L5509 259Q5509 307 5519 317Q5529 327 5554 346Q5580 365 5591 365Q5603 365 5606 361Q5609 357 5609 346Q5609 293 5589 246Q5584 189 5584 167Q5588 173 5626 235Q5664 297 5690 326Q5717 355 5738 355Q5759 355 5775 341Q5792 327 5792 306Q5792 262 5782 176Q5773 91 5773 68Q5773 46 5779 46Q5796 47 5826 88Q5856 130 5885 195Q5915 260 5921 260Q5928 260 5928 252Q5928 224 5899 163Q5820 -5 5766 -5Q5727 -5 5707 11Q5700 18 5700 47Q5700 77 5705 143Q5711 210 5711 243Q5711 276 5699 276Q5688 276 5639 207Q5590 139 5587 120Q5581 85 5581 54ZM6159 -5Q6125 -5 6106 10Q6098 18 6098 52Q6098 86 6101 141Q6074 69 6046 32Q6018 -5 5975 -5Q5933 -5 5903 32Q5874 69 5874 150Q5874 231 5919 293Q5965 355 6039 355Q6075 355 6114 327Q6130 522 6143 547Q6149 558 6171 579Q6194 600 6209 600Q6224 600 6224 553Q6224 498 6214 458Q6187 355 6180 327Q6166 219 6166 73Q6166 46 6172 46Q6190 47 6220 88Q6250 129 6279 194Q6309 260 6315 260Q6322 260 6322 252Q6322 224 6293 163Q6214 -5 6159 -5ZM6033 319Q6006 319 5979 276Q5952 233 5952 176Q5952 120 5966 84Q5981 48 6003 48Q6048 48 6106 228Q6111 283 6111 293Q6082 319 6033 319ZM6722 26Q6776 26 6817 64Q6859 102 6859 151Q6859 201 6828 243Q6794 226 6761 226Q6684 226 6684 274Q6684 288 6703 299Q6722 311 6757 311Q6793 311 6835 290Q6875 333 6875 387Q6875 454 6816 493Q6758 533 6691 533Q6677 533 6670 532Q6669 503 6665 439Q6659 343 6659 146Q6659 70 6648 70Q6605 70 6593 82Q6581 94 6581 151Q6581 165 6586 266Q6592 367 6592 429Q6592 491 6596 520Q6543 502 6539 462Q6535 429 6524 416Q6514 403 6496 403Q6479 403 6473 412Q6467 422 6467 432Q6467 519 6602 552Q6619 620 6656 620Q6671 620 6671 564Q6697 567 6735 567Q6774 567 6824 552Q6874 538 6911 501Q6948 465 6948 420Q6948 336 6867 269Q6923 225 6923 164Q6923 103 6885 63Q6814 -10 6695 -10Q6614 -10 6579 1Q6572 3 6564 11Q6557 20 6557 33Q6557 54 6598 54Q6611 54 6655 40Q6699 26 6722 26ZM6807 265Q6777 290 6750 290Q6724 290 6724 279Q6724 256 6773 256Q6791 256 6807 265ZM7095 -5Q7039 -5 7006 37Q6973 80 6973 134Q6973 243 7019 299Q7065 355 7138 355Q7172 355 7194 336Q7216 318 7216 286Q7216 226 7165 185Q7115 145 7042 143Q7046 104 7068 75Q7091 47 7121 47Q7151 47 7175 61Q7199 75 7219 101Q7261 156 7291 226Q7299 244 7303 252Q7308 260 7313 260Q7319 260 7319 252Q7319 202 7258 102Q7192 -5 7095 -5ZM7042 167Q7101 177 7128 205Q7156 233 7156 278Q7156 323 7127 323Q7092 323 7068 274Q7044 226 7042 167ZM7547 -5Q7508 -5 7488 11Q7481 18 7481 46Q7481 75 7483 123Q7457 58 7431 26Q7406 -5 7366 -5Q7326 -5 7296 32Q7266 70 7266 150Q7266 231 7311 293Q7357 355 7431 355Q7463 355 7503 313Q7511 324 7531 339Q7552 355 7566 355Q7581 355 7581 317Q7581 307 7575 278Q7570 249 7563 236Q7554 213 7554 73Q7554 46 7560 46Q7577 47 7607 88Q7637 130 7666 195Q7696 260 7702 260Q7709 260 7709 252Q7709 224 7680 163Q7601 -5 7547 -5ZM7425 315Q7397 315 7365 273Q7334 232 7334 176Q7334 120 7350 84Q7367 48 7394 48Q7427 48 7491 213Q7492 221 7493 240Q7495 260 7496 270Q7487 286 7464 300Q7442 315 7425 315ZM7649 87L7655 199Q7655 306 7665 316Q7675 326 7700 345Q7726 365 7737 365Q7749 365 7752 361Q7755 357 7755 345Q7755 302 7736 258Q7721 166 7721 107Q7721 48 7740 48Q7763 48 7794 88Q7825 128 7856 207Q7865 307 7870 315Q7876 323 7898 344Q7920 365 7934 365Q7949 365 7949 327Q7949 317 7943 288Q7938 259 7931 246Q7920 218 7920 73Q7920 46 7926 46Q7943 47 7973 88Q8003 130 8032 195Q8062 260 8068 260Q8075 260 8075 252Q8075 224 8046 163Q7967 -5 7913 -5Q7874 -5 7854 11Q7847 18 7847 54Q7847 90 7850 134Q7818 66 7786 30Q7754 -5 7714 -5Q7675 -5 7662 16Q7649 37 7649 87ZM8238 163Q8159 -5 8104 -5Q8050 -5 8040 8Q8031 21 8031 94Q8031 167 8045 305Q7995 315 7992 346Q7992 362 8013 362Q8034 362 8050 354Q8059 426 8071 500Q8074 519 8090 536Q8106 553 8121 553Q8134 553 8134 512Q8134 493 8120 337Q8147 342 8179 357Q8212 372 8218 372Q8236 372 8236 361Q8237 351 8199 333Q8161 316 8117 307Q8105 161 8105 86Q8105 46 8117 46Q8135 47 8165 88Q8195 129 8224 194Q8254 260 8260 260Q8267 260 8267 252Q8267 224 8238 163ZM8215 87L8221 199Q8221 306 8231 316Q8241 326 8266 345Q8292 365 8303 365Q8315 365 8318 361Q8321 357 8321 345Q8321 302 8302 258Q8287 166 8287 107Q8287 48 8301 48Q8325 48 8356 90Q8388 133 8421 216Q8422 238 8423 262Q8424 287 8425 298Q8426 310 8426 315Q8427 320 8454 342Q8481 365 8495 365Q8510 365 8510 327Q8510 317 8504 288Q8499 259 8492 246Q8484 175 8481 122Q8579 246 8585 253Q8592 260 8597 260Q8607 260 8607 250Q8607 244 8603 237Q8571 190 8477 72Q8471 -47 8469 -90Q8464 -217 8433 -269Q8403 -320 8325 -320Q8291 -320 8261 -300Q8232 -279 8232 -229Q8232 -178 8270 -125Q8309 -72 8411 38L8417 147Q8383 72 8350 33Q8317 -5 8277 -5Q8237 -5 8226 15Q8215 35 8215 87ZM8403 -107L8408 -9Q8294 -132 8294 -206Q8294 -240 8306 -262Q8318 -284 8339 -284Q8371 -284 8384 -249Q8397 -214 8403 -107Z" fill="#5ca4a9" style=""></path></g></g></g></svg>